<svg width="24" height="24" viewBox="0 0 24 24" fill="none" xmlns="http://www.w3.org/2000/svg">
<g stroke="currentColor" stroke-width="2" stroke-linecap="round" stroke-linejoin="round" fill="none">
  <!-- left stick figure, sprinting right (long stride, drive leg folded back) -->
  <circle cx="3.6" cy="4" r="1.8"/>
  <polyline points="4.2,6 2.6,13"/>
  <polyline points="2.6,13 5,17 7.2,21.2"/>
  <polyline points="2.6,13 1.1,15.6 0.7,11.8"/>
  <polyline points="4.2,6 6.6,9 8.4,8"/>
  <polyline points="4.2,6 2.1,9.6 0.6,11.4"/>
  <!-- right stick figure, sprinting left (mirrored) -->
  <circle cx="20.4" cy="4" r="1.8"/>
  <polyline points="19.8,6 21.4,13"/>
  <polyline points="21.4,13 19,17 16.8,21.2"/>
  <polyline points="21.4,13 22.9,15.6 23.3,11.8"/>
  <polyline points="19.8,6 17.4,9 15.6,8"/>
  <polyline points="19.8,6 21.9,9.6 23.4,11.4"/>
</g>
<!-- ball -->
<circle cx="12" cy="18" r="2.5" stroke="currentColor" stroke-width="1.3" fill="none"/>
<path d="M12 16.9L13 17.6L12.6 18.8L11.4 18.8L11 17.6Z" fill="currentColor"/>
</svg>
